<svg height="512" viewBox="0 0 64 64" width="512" xmlns="http://www.w3.org/2000/svg"><g id="Filled_outline" data-name="Filled outline"><path d="m3 9h16v10h-16z" fill="#f98c96"/><path d="m42 45 5-4v8h-5z" fill="#f9bb4b"/><path d="m38 45-5-4v8h5z" fill="#f9bb4b"/><path d="m33 23v18l5 4h4l5-4v-18z" fill="#4f83d1"/><path d="m29 30-8-2v-5h8z" fill="#4da6ea"/><path d="m14 25.5a2.5 2.5 0 0 1 2.5-2.5h.5a2 2 0 0 1 2-2 2 2 0 0 1 2 2v5h-4.5a2.5 2.5 0 0 1 -2.5-2.5z" fill="#e97424"/><path d="m58.5 11a2.5 2.5 0 0 0 -2.5 2.5v.5a2 2 0 0 0 -2 2 2 2 0 0 0 2 2h5v-4.5a2.5 2.5 0 0 0 -2.5-2.5z" fill="#e97424"/><path d="m56 18v5h-5v7l10-4v-8z" fill="#4da6ea"/><path d="m47 23h4v7h-4z" fill="#f9bb4b"/><path d="m29 23h4v7h-4z" fill="#f9bb4b" transform="matrix(-1 0 0 -1 62 53)"/><g fill="#f4f4e6"><path d="m42 26h2v2h-2z"/><path d="m36 26h4v2h-4z"/><path d="m36 30h2v2h-2z"/><path d="m40 30h4v2h-4z"/></g><path d="m50 13a10 10 0 1 0 -15 8.651v1.349h10v-1.349a9.988 9.988 0 0 0 5-8.651z" fill="#4da6ea"/><path d="m33 35h14v6l-5 4h-4l-5-4z" fill="#4da6ea"/><path d="m38 35h4v4h-4z" fill="#e97424"/><path d="m33 35h5v4h-5z" fill="#f9bb4b"/><path d="m42 35h5v4h-5z" fill="#f9bb4b"/><path d="m42 57h9a0 0 0 0 1 0 0v4a0 0 0 0 1 0 0h-7a2 2 0 0 1 -2-2v-2a0 0 0 0 1 0 0z" fill="#e97424" transform="matrix(-1 0 0 -1 93 118)"/><path d="m42 49h7v8h-7z" fill="#4da6ea" transform="matrix(-1 0 0 -1 91 106)"/><path d="m45 52h3v2h-3z" fill="#f4f4e6"/><path d="m31 57h7a0 0 0 0 1 0 0v4a0 0 0 0 1 0 0h-9a0 0 0 0 1 0 0v-2a2 2 0 0 1 2-2z" fill="#e97424"/><path d="m31 49h7v8h-7z" fill="#4da6ea"/><path d="m32 52h3v2h-3z" fill="#f4f4e6"/><ellipse cx="40" cy="14" fill="#fcf05a" rx="6" ry="5"/><circle cx="19" cy="5" fill="#e97424" r="2"/><path d="m58.5 10a3.5 3.5 0 0 0 -3.484 3.166 2.991 2.991 0 0 0 -.016 5.65v3.184h-8.719a11 11 0 1 0 -12.562 0h-11.9a3 3 0 0 0 -1.819-1.816v-12.368a3 3 0 1 0 -2 0v.184h-16v12h16v.176a3.013 3.013 0 0 0 -1.834 1.84 3.5 3.5 0 0 0 .334 6.984h1.5v23a1 1 0 0 0 2 0v-23h.876l7.881 1.97a1 1 0 0 0 .243.03h3v17h-1a1 1 0 0 0 -1 1v7.184a3 3 0 0 0 -2 2.816v2a1 1 0 0 0 1 1h9a1 1 0 0 0 1-1v-15h2v15a1 1 0 0 0 1 1h9a1 1 0 0 0 1-1v-2a3 3 0 0 0 -2-2.816v-7.184a1 1 0 0 0 -1-1h-1v-17h3a1.007 1.007 0 0 0 .372-.071l10-4a1 1 0 0 0 .628-.929v-12.5a3.5 3.5 0 0 0 -3.5-3.5zm-39.5-6a1 1 0 1 1 -1 1 1 1 0 0 1 1-1zm-15 14v-8h14v8zm16 9h-3.5a1.5 1.5 0 0 1 0-3h.5a1 1 0 0 0 1-1 1 1 0 0 1 2 0zm8 1.719-6-1.5v-3.219h6zm20 21.281v2h-3v2h3v2h-5v-6zm-5-2v-2.52l3-2.4v4.92zm-9-14v-10h12v10zm7 2v2h-2v-2zm-4 0v2h-3v-2zm6 0h3v2h-3zm-12-23a9 9 0 1 1 13.5 7.786 1 1 0 0 0 -.5.865v.349h-8v-.349a1 1 0 0 0 -.5-.865 9.032 9.032 0 0 1 -4.5-7.786zm-1 16v-5h2v5zm7 31h-7v-1a1 1 0 0 1 1-1h6zm0-4h-5v-2h3v-2h-3v-2h5zm0-8h-3v-4.919l3 2.4zm4.649-4h-3.3l-4.349-3.48v-.52h12v.52zm7.351 14a1 1 0 0 1 1 1v1h-7v-2zm1-29h-2v-5h2zm10-3.677-8 3.2v-4.523h4a1 1 0 0 0 1-1v-4h3zm0-8.323h-4a1 1 0 0 1 0-2 1 1 0 0 0 1-1v-.5a1.5 1.5 0 0 1 3 0z"/><path d="m42 26h2v2h-2z"/><path d="m36 26h4v2h-4z"/><path d="m36 30h2v2h-2z"/><path d="m40 30h4v2h-4z"/><path d="m47 14c0-3.309-3.14-6-7-6s-7 2.691-7 6 3.14 6 7 6 7-2.691 7-6zm-8.707-1.707-3 3a3.256 3.256 0 0 1 -.293-1.293c0-2.206 2.243-4 5-4a5.679 5.679 0 0 1 3.461 1.125l-3.168 3.168 1.414 1.414 3-3a3.256 3.256 0 0 1 .293 1.293c0 2.206-2.243 4-5 4a5.679 5.679 0 0 1 -3.461-1.125l3.168-3.168z"/><path d="m8 12h-2v4h6v-2h-4z"/></g></svg>