<svg id="Layer_1" enable-background="new 0 0 64 64" height="512" viewBox="0 0 64 64" width="512" xmlns="http://www.w3.org/2000/svg"><circle cx="32" cy="32" fill="#a0ceff" r="24"/><path d="m56 32c0 13.25-10.75 24-24 24-4.23 0-8.21-1.1-11.67-3.04 12.63-.69 22.67-11.16 22.67-23.96 0-9.01-4.97-16.87-12.33-20.96.44-.03.88-.04 1.33-.04 13.25 0 24 10.75 24 24z" fill="#b3d8ff"/><circle cx="41" cy="20" fill="#c6e2ff" r="4"/><path d="m45 20c0 1.71-1.07 3.17-2.59 3.73-.59-2.66-1.62-5.14-3.02-7.38.49-.23 1.04-.35 1.61-.35 2.21 0 4 1.79 4 4z" fill="#accdea"/><path d="m47.73 29.73c-.467-.467-1.101-.73-1.762-.73h-9.936c-.551 0-1.077.191-1.509.523l-2.023-2.023c-.552-.552-.552-1.448 0-2l.086-.086c.265-.265.414-.625.414-1 0-.781-.633-1.414-1.414-1.414-.375 0-.735-.149-1-.414l-.586-.586 2.033-.678c.577-.192.967-.733.967-1.341v-2.566c0-.782-.633-1.415-1.414-1.415h-2.172c-.781 0-1.414-.633-1.414-1.414v-6.248c-7.942 1.333-14.558 6.565-17.816 13.662h5.266c.354 0 .695.133.956.372l5.189 4.757c.261.239.602.372.956.372h5.364c.375 0 .735.149 1 .414l3.585 3.585-.27.27c-.467.467-.73 1.101-.73 1.762v2.436c0 .661.263 1.295.73 1.762l1.577 1.577c.589.589.845 1.434.681 2.251l-1.286 6.43c-.13.648.004 1.321.37 1.871.781 1.171 2.376 1.464 3.522.645l4.159-2.971c.482-.344.825-.849.969-1.423l1.61-6.44c.11-.438.336-.838.655-1.158l1.226-1.226c.189-.189.347-.408.467-.648l2.016-4.032c.48-.959.292-2.118-.466-2.876z" fill="#9bd178"/><path d="m48.2 32.61-2.02 4.03c-.12.24-.28.46-.47.65l-1.22 1.22c-.32.32-.55.72-.66 1.16l-1.61 6.44c-.14.57-.48 1.08-.97 1.42l-4.16 2.97c-1.14.82-2.74.53-3.52-.64-.29-.44-.44-.96-.42-1.49 5.97-4.36 9.85-11.41 9.85-19.37h2.97c.66 0 1.29.26 1.76.73.76.76.95 1.92.47 2.88z" fill="#b3d8ff"/><path d="m48.2 32.61-2.02 4.03c-.12.24-.28.46-.47.65l-1.22 1.22c-.32.32-.55.72-.66 1.16l-1.61 6.44c-.14.57-.48 1.08-.97 1.42l-4.16 2.97c-1.14.82-2.74.53-3.52-.64-.29-.44-.44-.96-.42-1.49 5.97-4.36 9.85-11.41 9.85-19.37h2.97c.66 0 1.29.26 1.76.73.76.76.95 1.92.47 2.88z" fill="#8ec16c"/><path d="m26.879 43.5h-.5c-.563 0-1.102-.224-1.5-.621l-1.257-1.257c-.398-.399-.938-.622-1.501-.622-1.171 0-2.121-.95-2.121-2.121v-1.757c0-1.172-.95-2.122-2.121-2.122h-9.686c.811 6.499 4.217 12.188 9.152 16h6.776c.563 0 1.102-.224 1.5-.621l2.757-2.757c.398-.398.621-.937.621-1.5v-.5c.001-1.172-.949-2.122-2.12-2.122z" fill="#9bd178"/><path d="m10 33c0 9.01 4.97 16.86 12.32 20.95-8.43-3.71-14.32-12.15-14.32-21.95 0-13.25 10.75-24 24-24 4.24 0 8.22 1.1 11.68 3.05-2.96-1.32-6.24-2.05-9.68-2.05-13.25 0-24 10.75-24 24z" fill="#ecf5ff"/><path d="m8 32.5c.276 0 .5-.224.5-.5 0-2.707.454-5.341 1.35-7.831.094-.26-.041-.546-.301-.64-.263-.096-.546.041-.64.301-.935 2.599-1.409 5.347-1.409 8.17 0 .276.224.5.5.5z"/><path d="m32 7.5c-.687 0-1.375.031-2.045.092-.275.025-.478.269-.453.543s.266.483.543.453c.641-.059 1.298-.088 1.955-.088 12.958 0 23.5 10.542 23.5 23.5s-10.542 23.5-23.5 23.5c-3.691 0-7.219-.833-10.485-2.477-.246-.125-.547-.025-.671.222s-.024.547.222.671c3.407 1.715 7.086 2.584 10.934 2.584 13.51 0 24.5-10.991 24.5-24.5s-10.99-24.5-24.5-24.5z"/><path d="m10.184 22.5h5.266c.229 0 .449.085.618.24l5.189 4.757c.354.324.813.503 1.293.503h5.364c.241 0 .477.098.646.268l3.234 3.234c-.513.554-.794 1.27-.794 2.03v2.436c0 .799.311 1.551.876 2.116l1.577 1.578c.473.472.677 1.144.545 1.798l-1.286 6.431c-.156.784.001 1.582.444 2.246.454.68 1.146 1.136 1.95 1.283.183.033.366.05.547.05.617 0 1.217-.191 1.731-.558l4.16-2.971c.578-.413.991-1.02 1.163-1.709l1.61-6.44c.087-.35.269-.67.523-.925l1.226-1.226c.228-.227.416-.489.561-.778l2.017-4.032c.576-1.153.352-2.542-.561-3.454l-.354.354.354-.354c-.564-.565-1.315-.876-2.115-.876h-9.936c-.507 0-.999.131-1.444.381l-1.734-1.735c-.356-.356-.356-.937 0-1.293l.086-.086c.361-.361.561-.842.561-1.354 0-1.055-.859-1.914-1.914-1.914-.241 0-.477-.098-.646-.268l-.014-.014 1.266-.422c.783-.261 1.309-.991 1.309-1.816v-2.566c0-1.055-.859-1.914-1.914-1.914h-2.172c-.504 0-.914-.41-.914-.914v-6.248c0-.147-.065-.287-.177-.382-.111-.094-.257-.134-.406-.111-7.995 1.342-14.794 6.556-18.188 13.946-.071.155-.058.335.034.479.089.143.248.23.419.23zm17.316-13.563v5.649c0 1.056.859 1.914 1.914 1.914h2.172c.504 0 .914.41.914.914v2.566c0 .394-.251.743-.625.868l-2.033.678c-.165.055-.289.19-.329.359-.04.168.011.346.133.468l.586.586c.361.361.842.561 1.354.561.504 0 .914.41.914.914 0 .241-.098.477-.268.646l-.086.086c-.361.361-.561.842-.561 1.354s.199.992.561 1.354l2.022 2.023c.177.177.459.195.657.043.358-.275.775-.42 1.206-.42h9.936c.532 0 1.032.208 1.409.583.606.607.757 1.532.373 2.299l-2.017 4.031c-.097.193-.222.368-.373.519l-1.226 1.226c-.384.383-.655.864-.787 1.39l-1.61 6.44c-.114.458-.39.862-.774 1.138l-4.16 2.971c-.443.316-.984.437-1.516.338-.535-.098-.997-.401-1.299-.854-.29-.436-.398-.981-.296-1.496l1.286-6.43c.197-.984-.108-1.994-.818-2.703l-1.577-1.577c-.375-.375-.582-.875-.582-1.407v-2.436c0-.532.207-1.032.583-1.409l.27-.27c.195-.195.195-.512 0-.707l-3.586-3.586c-.361-.361-.842-.56-1.353-.56h-5.364c-.229 0-.449-.085-.618-.24l-5.189-4.757c-.354-.324-.813-.503-1.293-.503h-4.472c3.267-6.537 9.363-11.175 16.522-12.563z"/><path d="m25.975 50.732 2.758-2.758c.495-.495.768-1.153.768-1.854v-.5c0-1.445-1.176-2.621-2.621-2.621h-.5c-.433 0-.84-.168-1.146-.475l-1.258-1.258c-.495-.495-1.153-.768-1.854-.768-.894 0-1.621-.727-1.621-1.621v-1.758c0-1.445-1.176-2.621-2.621-2.621h-9.687c-.144 0-.28.062-.375.169s-.139.25-.121.393c.812 6.507 4.13 12.308 9.342 16.333.087.068.195.104.306.104h6.776c.7.003 1.358-.269 1.854-.765zm-17.208-15.232h9.112c.894 0 1.621.727 1.621 1.621v1.758c0 1.445 1.176 2.621 2.621 2.621.433 0 .84.168 1.146.475l1.258 1.258c.496.495 1.154.767 1.854.767h.5c.894 0 1.621.727 1.621 1.621v.5c0 .433-.168.84-.475 1.146l-2.758 2.758c-.306.306-.713.475-1.146.475h-6.604c-4.773-3.741-7.864-9.043-8.75-15z"/><path d="m45.5 20c0-2.481-2.019-4.5-4.5-4.5s-4.5 2.019-4.5 4.5 2.019 4.5 4.5 4.5 4.5-2.019 4.5-4.5zm-8 0c0-1.93 1.57-3.5 3.5-3.5s3.5 1.57 3.5 3.5-1.57 3.5-3.5 3.5-3.5-1.57-3.5-3.5z"/><circle cx="53" cy="52" r="1"/><circle cx="49" cy="24" r="1"/><circle cx="16" cy="28" r="1"/><path d="m56 9.5h-1.5v-1.5c0-.276-.224-.5-.5-.5s-.5.224-.5.5v1.5h-1.5c-.276 0-.5.224-.5.5s.224.5.5.5h1.5v1.5c0 .276.224.5.5.5s.5-.224.5-.5v-1.5h1.5c.276 0 .5-.224.5-.5s-.224-.5-.5-.5z"/><path d="m8 54.5h1.5v1.5c0 .276.224.5.5.5s.5-.224.5-.5v-1.5h1.5c.276 0 .5-.224.5-.5s-.224-.5-.5-.5h-1.5v-1.5c0-.276-.224-.5-.5-.5s-.5.224-.5.5v1.5h-1.5c-.276 0-.5.224-.5.5s.224.5.5.5z"/></svg>